<svg width="24" height="24" viewBox="0 0 24 24" fill="none" xmlns="http://www.w3.org/2000/svg">
<path d="M15.6255 10.5V6C15.6255 3.92893 13.9466 2.25 11.8755 2.25C9.80442 2.25 8.12548 3.92893 8.12548 6V10.5M19.4815 8.50723L20.7447 20.5072C20.8146 21.1715 20.2938 21.75 19.6258 21.75H4.12512C3.45721 21.75 2.93638 21.1715 3.0063 20.5072L4.26946 8.50723C4.32973 7.93466 4.81255 7.5 5.38828 7.5H18.3627C18.9384 7.5 19.4212 7.93466 19.4815 8.50723ZM8.50048 10.5C8.50048 10.7071 8.33259 10.875 8.12548 10.875C7.91838 10.875 7.75048 10.7071 7.75048 10.5C7.75048 10.2929 7.91838 10.125 8.12548 10.125C8.33259 10.125 8.50048 10.2929 8.50048 10.5ZM16.0005 10.5C16.0005 10.7071 15.8326 10.875 15.6255 10.875C15.4184 10.875 15.2505 10.7071 15.2505 10.5C15.2505 10.2929 15.4184 10.125 15.6255 10.125C15.8326 10.125 16.0005 10.2929 16.0005 10.5Z" stroke="white" stroke-width="1.5" stroke-linecap="round" stroke-linejoin="round"/>
</svg>
