<svg width="166" height="40" viewBox="0 0 166 40" fill="none" xmlns="http://www.w3.org/2000/svg">
<g clip-path="url(#clip0_2001_570)">
<path d="M15.6136 5.73589V18.948C15.6136 20.378 14.4822 21.5379 13.0846 21.5379H0C0.665199 13.0232 7.29321 6.23055 15.6052 5.5481C15.6112 5.61069 15.6124 5.67207 15.6124 5.73589H15.6136Z" fill="#F4CE47"/>
<path d="M33.9814 21.5381H20.8968C19.5005 21.5381 18.3679 20.3782 18.3679 18.9482V5.73608C18.3679 5.67225 18.3703 5.60965 18.375 5.54828C26.687 6.23073 33.3163 13.0234 33.9803 21.5381H33.9814Z" fill="#F4CE47"/>
<path d="M15.6136 26.9475V40.1609C15.6136 40.2235 15.6112 40.2849 15.6064 40.3474C7.29321 39.6638 0.665199 32.8736 0 24.3589H13.0846C14.4822 24.3589 15.6136 25.5176 15.6136 26.9475Z" fill="#F4CE47"/>
<path d="M33.9815 24.3586C33.3163 32.8733 26.6883 39.6635 18.3763 40.346C18.3703 40.2834 18.3691 40.222 18.3691 40.1594V26.9461C18.3691 25.5161 19.5017 24.3574 20.898 24.3574H33.9827L33.9815 24.3586Z" fill="#F4CE47"/>
<path d="M50.6209 27.75H44.7828V16.1728H50.3513C51.1615 16.1728 51.8423 16.2735 52.3936 16.4748C52.9449 16.6761 53.3608 16.9903 53.6425 17.4162C53.923 17.8421 54.0644 18.3896 54.0644 19.0573C54.0644 19.725 53.8762 20.3105 53.4987 20.7426C53.1211 21.1746 52.5566 21.4361 51.8027 21.5294V21.7024C52.7136 21.7712 53.3944 22.0719 53.8451 22.6009C54.2945 23.1312 54.5198 23.7878 54.5198 24.5709C54.5198 25.2166 54.376 25.7775 54.0896 26.2562C53.8031 26.7349 53.3692 27.1031 52.7903 27.3621C52.2102 27.6211 51.4875 27.7512 50.6221 27.7512L50.6209 27.75ZM47.3141 18.505V20.7512H50.1823C50.6545 20.7512 50.9973 20.6763 51.2118 20.5265C51.4252 20.3768 51.5318 20.0773 51.5318 19.6281C51.5318 19.1555 51.4216 18.8499 51.2022 18.7124C50.9829 18.5749 50.6425 18.505 50.1811 18.505H47.3129H47.3141ZM47.3141 22.8599V25.4179H50.537C50.9985 25.4179 51.3521 25.343 51.6002 25.1933C51.8471 25.0435 51.9717 24.6986 51.9717 24.1561C51.9717 23.6135 51.8507 23.2343 51.6085 23.0845C51.3664 22.9348 51.0093 22.8599 50.537 22.8599H47.3141V22.8599Z" fill="white"/>
<path d="M57.9945 27.75H55.4631V16.1728H57.9945V27.7512V27.75Z" fill="white"/>
<path d="M63.8674 27.9231C62.7875 27.9231 61.8766 27.6837 61.1335 27.2062C60.3916 26.7288 59.8259 26.0426 59.4375 25.1503C59.0492 24.2579 58.855 23.195 58.855 21.9614C58.855 20.7278 59.0744 19.7005 59.5131 18.8081C59.9517 17.9158 60.5822 17.2247 61.4032 16.735C62.2242 16.2452 63.2082 16.001 64.3564 16.001C65.5046 16.001 66.4263 16.1826 67.191 16.546C67.9557 16.9093 68.5346 17.4187 68.9289 18.0753C69.322 18.732 69.5198 19.5213 69.5198 20.4431V20.529H66.8374V20.4603C66.8374 19.7226 66.6457 19.2132 66.2633 18.9309C65.881 18.6486 65.2278 18.5074 64.3061 18.5074C63.6649 18.5074 63.1423 18.6056 62.7372 18.8008C62.3321 18.9972 62.0336 19.3457 61.843 19.8465C61.6513 20.3473 61.5566 21.0531 61.5566 21.9639C61.5566 22.8746 61.6573 23.6 61.8598 24.107C62.0624 24.6139 62.3824 24.9649 62.8211 25.1613C63.2597 25.3577 63.8338 25.4547 64.5422 25.4547C65.1379 25.4547 65.6245 25.4093 66.002 25.316C66.3784 25.2239 66.66 25.0509 66.8458 24.798C67.0316 24.5452 67.1239 24.1818 67.1239 23.7093V22.9311H69.5534V23.1901L67.3936 25.9899H67.1071C66.9944 26.2894 66.8123 26.5888 66.5582 26.8883C66.3053 27.1878 65.9589 27.4358 65.5202 27.6309C65.0815 27.8261 64.5302 27.9243 63.8662 27.9243L63.8674 27.9231ZM69.5534 23.7584H64.0352V21.5981H69.5534V23.7584ZM69.5534 27.75H67.2078V24.6225L67.1239 24.4151V21.9099H69.5534V27.7512V27.75Z" fill="white"/>
<path d="M79.5421 27.75H73.7039V16.1728H79.2724C80.0827 16.1728 80.7634 16.2735 81.3136 16.4748C81.8649 16.6761 82.2808 16.9903 82.5625 17.4162C82.8429 17.8421 82.9844 18.3896 82.9844 19.0573C82.9844 19.725 82.7962 20.3105 82.4187 20.7426C82.0411 21.1746 81.4766 21.4361 80.7227 21.5294V21.7024C81.6336 21.7712 82.3144 22.0719 82.7638 22.6009C83.2133 23.1312 83.4386 23.7878 83.4386 24.5709C83.4386 25.2166 83.2948 25.7775 83.0083 26.2562C82.7219 26.7349 82.288 27.1031 81.7091 27.3621C81.1302 27.6211 80.4075 27.7512 79.5409 27.7512L79.5421 27.75ZM76.2353 18.505V20.7512H79.1034C79.5757 20.7512 79.9185 20.6763 80.133 20.5265C80.3463 20.3768 80.4542 20.0773 80.4542 19.6281C80.4542 19.1555 80.3439 18.8499 80.1246 18.7124C79.9053 18.5737 79.5649 18.505 79.1034 18.505H76.2353ZM76.2353 22.8599V25.4179H79.4582C79.9197 25.4179 80.2732 25.343 80.5213 25.1933C80.7682 25.0435 80.8929 24.6986 80.8929 24.1561C80.8929 23.6135 80.7718 23.2343 80.5297 23.0845C80.2876 22.9348 79.9304 22.8599 79.4582 22.8599H76.2353Z" fill="white"/>
<path d="M89.447 27.9233C88.3108 27.9233 87.3399 27.679 86.5357 27.1893C85.7315 26.6995 85.1094 26.0085 84.6708 25.1161C84.2321 24.2238 84.0128 23.1719 84.0128 21.9628C84.0128 20.7538 84.2321 19.7019 84.6708 18.8096C85.1094 17.9172 85.7315 17.2262 86.5357 16.7364C87.3399 16.2467 88.3096 16.0024 89.447 16.0024C90.5844 16.0024 91.5397 16.2479 92.3499 16.7364C93.1601 17.2262 93.781 17.9172 94.2149 18.8096C94.6475 19.7019 94.8645 20.7538 94.8645 21.9628C94.8645 23.1719 94.6475 24.2238 94.2149 25.1161C93.7822 26.0085 93.1601 26.7008 92.3499 27.1893C91.5397 27.679 90.5724 27.9233 89.447 27.9233ZM89.447 25.4181C90.0882 25.4181 90.6084 25.3174 91.0075 25.1161C91.4066 24.9148 91.6991 24.5626 91.8849 24.0618C92.0706 23.561 92.1629 22.8601 92.1629 21.9616C92.1629 21.0631 92.0706 20.3488 91.8849 19.8529C91.6991 19.3582 91.4066 19.0096 91.0075 18.8071C90.6084 18.6058 90.0882 18.5052 89.447 18.5052C88.8058 18.5052 88.2688 18.6058 87.8697 18.8071C87.4706 19.0084 87.1781 19.357 86.9924 19.8529C86.8066 20.3488 86.7143 21.0509 86.7143 21.9616C86.7143 22.8724 86.8066 23.5597 86.9924 24.0618C87.1781 24.5626 87.4706 24.9148 87.8697 25.1161C88.2688 25.3174 88.795 25.4181 89.447 25.4181Z" fill="white"/>
<path d="M101.039 27.9233C99.9032 27.9233 98.9324 27.679 98.1282 27.1893C97.3239 26.6995 96.7019 26.0085 96.2632 25.1161C95.8245 24.2238 95.6052 23.1719 95.6052 21.9628C95.6052 20.7538 95.8245 19.7019 96.2632 18.8096C96.7019 17.9172 97.3239 17.2262 98.1282 16.7364C98.9324 16.2467 99.902 16.0024 101.039 16.0024C102.177 16.0024 103.132 16.2479 103.942 16.7364C104.753 17.2262 105.373 17.9172 105.807 18.8096C106.24 19.7019 106.457 20.7538 106.457 21.9628C106.457 23.1719 106.24 24.2238 105.807 25.1161C105.375 26.0085 104.753 26.7008 103.942 27.1893C103.132 27.679 102.165 27.9233 101.039 27.9233ZM101.039 25.4181C101.681 25.4181 102.201 25.3174 102.6 25.1161C102.999 24.9148 103.292 24.5626 103.477 24.0618C103.663 23.561 103.755 22.8601 103.755 21.9616C103.755 21.0631 103.663 20.3488 103.477 19.8529C103.292 19.3582 102.999 19.0096 102.6 18.8071C102.201 18.6058 101.681 18.5052 101.039 18.5052C100.398 18.5052 99.8613 18.6058 99.4621 18.8071C99.063 19.0084 98.7706 19.357 98.5848 19.8529C98.399 20.3488 98.3067 21.0509 98.3067 21.9616C98.3067 22.8724 98.399 23.5597 98.5848 24.0618C98.7706 24.5626 99.063 24.9148 99.4621 25.1161C99.8613 25.3174 100.387 25.4181 101.039 25.4181Z" fill="white"/>
<path d="M109.864 27.75H107.333V16.1728H109.864V27.7512V27.75ZM117.474 27.75H114.571L112.04 23.292H108.564V20.7868H112.006L114.655 16.1728H117.523L114.114 21.9099L117.473 27.7512L117.474 27.75Z" fill="white"/>
<path d="M122.267 27.9232C121.164 27.9232 120.253 27.7735 119.533 27.474C118.813 27.1745 118.278 26.7314 117.931 26.1434C117.582 25.5555 117.408 24.8362 117.408 23.9831V23.7585H119.889V23.9316C119.889 24.3575 119.956 24.6889 120.092 24.9258C120.227 25.1627 120.472 25.3296 120.825 25.4266C121.18 25.5248 121.7 25.5739 122.386 25.5739C123.071 25.5739 123.584 25.4941 123.82 25.3321C124.057 25.1713 124.175 24.8939 124.175 24.5023C124.175 24.2372 124.138 24.0249 124.065 23.8628C123.992 23.702 123.831 23.567 123.584 23.4566C123.336 23.3473 122.949 23.2516 122.42 23.1718L120.43 22.8085C119.709 22.682 119.122 22.4709 118.667 22.1776C118.211 21.8842 117.879 21.5148 117.671 21.0716C117.462 20.6285 117.359 20.1069 117.359 19.5079C117.359 18.9089 117.508 18.3443 117.806 17.814C118.104 17.2838 118.588 16.8493 119.257 16.5093C119.926 16.1693 120.795 15.9999 121.864 15.9999C122.933 15.9999 123.819 16.1729 124.488 16.5179C125.157 16.864 125.649 17.339 125.965 17.9429C126.28 18.548 126.437 19.2366 126.437 20.0075V20.1462H123.939V19.9559C123.939 19.5533 123.877 19.2366 123.753 19.0059C123.63 18.7751 123.41 18.6082 123.095 18.5051C122.78 18.402 122.341 18.3492 121.779 18.3492C121.059 18.3492 120.562 18.4327 120.286 18.5996C120.01 18.7665 119.872 19.0341 119.872 19.4036C119.872 19.6454 119.917 19.8381 120.008 19.9829C120.098 20.1265 120.258 20.2394 120.488 20.3205C120.719 20.4015 121.054 20.4874 121.493 20.5794L123.5 20.9771C124.288 21.1269 124.915 21.3662 125.382 21.694C125.848 22.0229 126.184 22.4169 126.387 22.8772C126.589 23.3387 126.69 23.8506 126.69 24.4152C126.69 25.0264 126.544 25.5984 126.251 26.1348C125.959 26.67 125.491 27.102 124.851 27.431C124.21 27.76 123.349 27.9232 122.269 27.9232H122.267Z" fill="white"/>
<path d="M129.893 27.75H127.362V16.1728H129.893V27.7512V27.75ZM136.103 23.0845H128.072V20.7683H136.103V23.0845ZM137.352 27.75H134.821V16.1728H137.352V27.7512V27.75Z" fill="white"/>
<path d="M141.183 27.7501H138.651V16.1729H141.183V27.7514V27.7501ZM147.274 18.5051H139.36V16.1717H147.274V18.5051ZM147.021 23.0846H139.36V20.7685H147.021V23.0846ZM147.274 27.7501H139.36V25.4168H147.274V27.7501Z" fill="white"/>
<path d="M150.8 27.75H148.269V16.1728H150.8V27.7512V27.75ZM156.638 27.75H148.977V25.4166H156.638V27.75Z" fill="white"/>
<path d="M159.782 27.7501H157.25V16.1729H159.782V27.7514V27.7501ZM165.739 18.5051H157.96V16.1717H165.739V18.5051ZM165.486 23.4652H157.96V21.149H165.486V23.4652Z" fill="white"/>
</g>
<defs>
<clipPath id="clip0_2001_570">
<rect width="166" height="40" fill="white"/>
</clipPath>
</defs>
</svg>
